<?xml version="1.0" encoding="UTF-8" standalone="no"?><svg xmlns="http://www.w3.org/2000/svg" xmlns:xlink="http://www.w3.org/1999/xlink" contentScriptType="application/ecmascript" contentStyleType="text/css" height="406px" preserveAspectRatio="none" style="width:662px;height:406px;" version="1.1" viewBox="0 0 662 406" width="662px" zoomAndPan="magnify"><defs><filter height="300%" id="ft5ls9s4nnf4p" width="300%" x="-1" y="-1"><feGaussianBlur result="blurOut" stdDeviation="2.0"/><feColorMatrix in="blurOut" result="blurOut2" type="matrix" values="0 0 0 0 0 0 0 0 0 0 0 0 0 0 0 0 0 0 .4 0"/><feOffset dx="4.0" dy="4.0" in="blurOut2" result="blurOut3"/><feBlend in="SourceGraphic" in2="blurOut3" mode="normal"/></filter></defs><g><line style="stroke: #A80036; stroke-width: 1.0; stroke-dasharray: 5.0,5.0;" x1="51" x2="51" y1="65.4883" y2="332.9727"/><line style="stroke: #A80036; stroke-width: 1.0; stroke-dasharray: 5.0,5.0;" x1="199" x2="199" y1="65.4883" y2="332.9727"/><line style="stroke: #A80036; stroke-width: 1.0; stroke-dasharray: 5.0,5.0;" x1="310.5" x2="310.5" y1="65.4883" y2="332.9727"/><line style="stroke: #A80036; stroke-width: 1.0; stroke-dasharray: 5.0,5.0;" x1="485" x2="485" y1="65.4883" y2="332.9727"/><line style="stroke: #A80036; stroke-width: 1.0; stroke-dasharray: 5.0,5.0;" x1="609.5" x2="609.5" y1="65.4883" y2="332.9727"/><rect fill="#FEFECE" filter="url(#ft5ls9s4nnf4p)" height="30.4883" style="stroke: #A80036; stroke-width: 1.5;" width="82" x="8" y="30"/><text fill="#000000" font-family="sans-serif" font-size="14" lengthAdjust="spacingAndGlyphs" textLength="68" x="15" y="50.5352">ClientApp</text><rect fill="#FEFECE" filter="url(#ft5ls9s4nnf4p)" height="30.4883" style="stroke: #A80036; stroke-width: 1.5;" width="82" x="8" y="331.9727"/><text fill="#000000" font-family="sans-serif" font-size="14" lengthAdjust="spacingAndGlyphs" textLength="68" x="15" y="352.5078">ClientApp</text><rect fill="#FEFECE" filter="url(#ft5ls9s4nnf4p)" height="30.4883" style="stroke: #A80036; stroke-width: 1.5;" width="98" x="148" y="30"/><text fill="#000000" font-family="sans-serif" font-size="14" lengthAdjust="spacingAndGlyphs" textLength="84" x="155" y="50.5352">omniproxyd</text><rect fill="#FEFECE" filter="url(#ft5ls9s4nnf4p)" height="30.4883" style="stroke: #A80036; stroke-width: 1.5;" width="98" x="148" y="331.9727"/><text fill="#000000" font-family="sans-serif" font-size="14" lengthAdjust="spacingAndGlyphs" textLength="84" x="155" y="352.5078">omniproxyd</text><text fill="#000000" font-family="sans-serif" font-size="14" lengthAdjust="spacingAndGlyphs" textLength="83" x="266.5" y="62.5352">proxy cache</text><path d="M293,13 C293,3 311,3 311,3 C311,3 329,3 329,13 L329,39 C329,49 311,49 311,49 C311,49 293,49 293,39 L293,13 " fill="#FEFECE" filter="url(#ft5ls9s4nnf4p)" style="stroke: #000000; stroke-width: 1.5;"/><path d="M293,13 C293,23 311,23 311,23 C311,23 329,23 329,13 " fill="none" style="stroke: #000000; stroke-width: 1.5;"/><text fill="#000000" font-family="sans-serif" font-size="14" lengthAdjust="spacingAndGlyphs" textLength="83" x="266.5" y="345.5078">proxy cache</text><path d="M293,358.4609 C293,348.4609 311,348.4609 311,348.4609 C311,348.4609 329,348.4609 329,358.4609 L329,384.4609 C329,394.4609 311,394.4609 311,394.4609 C311,394.4609 293,394.4609 293,384.4609 L293,358.4609 " fill="#FEFECE" filter="url(#ft5ls9s4nnf4p)" style="stroke: #000000; stroke-width: 1.5;"/><path d="M293,358.4609 C293,368.4609 311,368.4609 311,368.4609 C311,368.4609 329,368.4609 329,358.4609 " fill="none" style="stroke: #000000; stroke-width: 1.5;"/><rect fill="#FEFECE" filter="url(#ft5ls9s4nnf4p)" height="30.4883" style="stroke: #A80036; stroke-width: 1.5;" width="88" x="439" y="30"/><text fill="#000000" font-family="sans-serif" font-size="14" lengthAdjust="spacingAndGlyphs" textLength="74" x="446" y="50.5352">omnicored</text><rect fill="#FEFECE" filter="url(#ft5ls9s4nnf4p)" height="30.4883" style="stroke: #A80036; stroke-width: 1.5;" width="88" x="439" y="331.9727"/><text fill="#000000" font-family="sans-serif" font-size="14" lengthAdjust="spacingAndGlyphs" textLength="74" x="446" y="352.5078">omnicored</text><rect fill="#FEFECE" filter="url(#ft5ls9s4nnf4p)" height="30.4883" style="stroke: #A80036; stroke-width: 1.5;" width="87" x="564.5" y="30"/><text fill="#000000" font-family="sans-serif" font-size="14" lengthAdjust="spacingAndGlyphs" textLength="73" x="571.5" y="50.5352">Blockchain</text><rect fill="#FEFECE" filter="url(#ft5ls9s4nnf4p)" height="30.4883" style="stroke: #A80036; stroke-width: 1.5;" width="87" x="564.5" y="331.9727"/><text fill="#000000" font-family="sans-serif" font-size="14" lengthAdjust="spacingAndGlyphs" textLength="73" x="571.5" y="352.5078">Blockchain</text><polygon fill="#A80036" points="496,92.7988,486,96.7988,496,100.7988,492,96.7988" style="stroke: #A80036; stroke-width: 1.0;"/><polygon fill="#A80036" points="598,92.7988,608,96.7988,598,100.7988,602,96.7988" style="stroke: #A80036; stroke-width: 1.0;"/><line style="stroke: #A80036; stroke-width: 1.0;" x1="490" x2="604" y1="96.7988" y2="96.7988"/><text fill="#000000" font-family="sans-serif" font-size="13" lengthAdjust="spacingAndGlyphs" textLength="101" x="502" y="92.0566">synchronization</text><polygon fill="#A80036" points="187,122.1094,197,126.1094,187,130.1094,191,126.1094" style="stroke: #A80036; stroke-width: 1.0;"/><line style="stroke: #A80036; stroke-width: 1.0;" x1="51" x2="193" y1="126.1094" y2="126.1094"/><text fill="#000000" font-family="sans-serif" font-size="13" lengthAdjust="spacingAndGlyphs" textLength="114" x="58" y="121.3672">JSON-RPC request</text><polygon fill="#A80036" points="299,151.4199,309,155.4199,299,159.4199,303,155.4199" style="stroke: #A80036; stroke-width: 1.0;"/><line style="stroke: #A80036; stroke-width: 1.0;" x1="199" x2="305" y1="155.4199" y2="155.4199"/><text fill="#000000" font-family="sans-serif" font-size="13" lengthAdjust="spacingAndGlyphs" textLength="67" x="206" y="150.6777">cache read</text><polygon fill="#A80036" points="473,180.7305,483,184.7305,473,188.7305,477,184.7305" style="stroke: #A80036; stroke-width: 1.0;"/><line style="stroke: #A80036; stroke-width: 1.0;" x1="311" x2="479" y1="184.7305" y2="184.7305"/><text fill="#000000" font-family="sans-serif" font-size="13" lengthAdjust="spacingAndGlyphs" textLength="143" x="318" y="179.9883">optional JSON-RPC req</text><polygon fill="#A80036" points="322,210.041,312,214.041,322,218.041,318,214.041" style="stroke: #A80036; stroke-width: 1.0;"/><line style="stroke: #A80036; stroke-width: 1.0;" x1="316" x2="484" y1="214.041" y2="214.041"/><text fill="#000000" font-family="sans-serif" font-size="13" lengthAdjust="spacingAndGlyphs" textLength="150" x="328" y="209.2988">optional JSON-RPC resp</text><line style="stroke: #A80036; stroke-width: 1.0;" x1="311" x2="353" y1="243.3516" y2="243.3516"/><line style="stroke: #A80036; stroke-width: 1.0;" x1="353" x2="353" y1="243.3516" y2="256.3516"/><line style="stroke: #A80036; stroke-width: 1.0;" x1="312" x2="353" y1="256.3516" y2="256.3516"/><polygon fill="#A80036" points="322,252.3516,312,256.3516,322,260.3516,318,256.3516" style="stroke: #A80036; stroke-width: 1.0;"/><text fill="#000000" font-family="sans-serif" font-size="13" lengthAdjust="spacingAndGlyphs" textLength="32" x="318" y="238.6094">store</text><polygon fill="#A80036" points="210,281.6621,200,285.6621,210,289.6621,206,285.6621" style="stroke: #A80036; stroke-width: 1.0;"/><line style="stroke: #A80036; stroke-width: 1.0;" x1="204" x2="310" y1="285.6621" y2="285.6621"/><text fill="#000000" font-family="sans-serif" font-size="13" lengthAdjust="spacingAndGlyphs" textLength="88" x="216" y="280.9199">read response</text><polygon fill="#A80036" points="62,310.9727,52,314.9727,62,318.9727,58,314.9727" style="stroke: #A80036; stroke-width: 1.0;"/><line style="stroke: #A80036; stroke-width: 1.0;" x1="56" x2="198" y1="314.9727" y2="314.9727"/><text fill="#000000" font-family="sans-serif" font-size="13" lengthAdjust="spacingAndGlyphs" textLength="124" x="68" y="310.2305">JSON-RPC response</text><!--MD5=[870d03f8800c4834c2da231cb8f5edd1]
@startuml
participant ClientApp      as Client
participant omniproxyd     as Proxy
database    "proxy cache"  as Cache
participant omnicored      as Core
participant Blockchain     as Chain

Core <-> Chain : synchronization
Client -> Proxy : JSON-RPC request
Proxy -> Cache : cache read
Cache -> Core : optional JSON-RPC req
Cache <- Core :  optional JSON-RPC resp
Cache <-> Cache: store
Proxy <- Cache : read response
Client <- Proxy : JSON-RPC response
@enduml

PlantUML version 1.2019.12(Sun Nov 03 02:24:54 PST 2019)
(APACHE source distribution)
Java Runtime: OpenJDK Runtime Environment
JVM: OpenJDK 64-Bit Server VM
Java Version: 16.0.2+7
Operating System: Mac OS X
Default Encoding: UTF-8
Language: en
Country: US
--></g></svg>