<?xml version="1.0" encoding="UTF-8" standalone="no"?><svg xmlns="http://www.w3.org/2000/svg" xmlns:xlink="http://www.w3.org/1999/xlink" contentScriptType="application/ecmascript" contentStyleType="text/css" height="305px" preserveAspectRatio="none" style="width:408px;height:305px;" version="1.1" viewBox="0 0 408 305" width="408px" zoomAndPan="magnify"><defs><filter height="300%" id="f7jmgluhpddnj" width="300%" x="-1" y="-1"><feGaussianBlur result="blurOut" stdDeviation="2.0"/><feColorMatrix in="blurOut" result="blurOut2" type="matrix" values="0 0 0 0 0 0 0 0 0 0 0 0 0 0 0 0 0 0 .4 0"/><feOffset dx="4.0" dy="4.0" in="blurOut2" result="blurOut3"/><feBlend in="SourceGraphic" in2="blurOut3" mode="normal"/></filter></defs><g><line style="stroke: #A80036; stroke-width: 1.0; stroke-dasharray: 5.0,5.0;" x1="51" x2="51" y1="65.4883" y2="232.041"/><line style="stroke: #A80036; stroke-width: 1.0; stroke-dasharray: 5.0,5.0;" x1="199" x2="199" y1="65.4883" y2="232.041"/><line style="stroke: #A80036; stroke-width: 1.0; stroke-dasharray: 5.0,5.0;" x1="286" x2="286" y1="65.4883" y2="232.041"/><line style="stroke: #A80036; stroke-width: 1.0; stroke-dasharray: 5.0,5.0;" x1="368" x2="368" y1="65.4883" y2="232.041"/><rect fill="#FEFECE" filter="url(#f7jmgluhpddnj)" height="30.4883" style="stroke: #A80036; stroke-width: 1.5;" width="82" x="8" y="30"/><text fill="#000000" font-family="sans-serif" font-size="14" lengthAdjust="spacingAndGlyphs" textLength="68" x="15" y="50.5352">ClientApp</text><rect fill="#FEFECE" filter="url(#f7jmgluhpddnj)" height="30.4883" style="stroke: #A80036; stroke-width: 1.5;" width="82" x="8" y="231.041"/><text fill="#000000" font-family="sans-serif" font-size="14" lengthAdjust="spacingAndGlyphs" textLength="68" x="15" y="251.5762">ClientApp</text><rect fill="#FEFECE" filter="url(#f7jmgluhpddnj)" height="30.4883" style="stroke: #A80036; stroke-width: 1.5;" width="74" x="160" y="30"/><text fill="#000000" font-family="sans-serif" font-size="14" lengthAdjust="spacingAndGlyphs" textLength="60" x="167" y="50.5352">jbitcoind</text><rect fill="#FEFECE" filter="url(#f7jmgluhpddnj)" height="30.4883" style="stroke: #A80036; stroke-width: 1.5;" width="74" x="160" y="231.041"/><text fill="#000000" font-family="sans-serif" font-size="14" lengthAdjust="spacingAndGlyphs" textLength="60" x="167" y="251.5762">jbitcoind</text><text fill="#000000" font-family="sans-serif" font-size="14" lengthAdjust="spacingAndGlyphs" textLength="71" x="248" y="62.5352">Blockstore</text><path d="M268.5,13 C268.5,3 286.5,3 286.5,3 C286.5,3 304.5,3 304.5,13 L304.5,39 C304.5,49 286.5,49 286.5,49 C286.5,49 268.5,49 268.5,39 L268.5,13 " fill="#FEFECE" filter="url(#f7jmgluhpddnj)" style="stroke: #000000; stroke-width: 1.5;"/><path d="M268.5,13 C268.5,23 286.5,23 286.5,23 C286.5,23 304.5,23 304.5,13 " fill="none" style="stroke: #000000; stroke-width: 1.5;"/><text fill="#000000" font-family="sans-serif" font-size="14" lengthAdjust="spacingAndGlyphs" textLength="71" x="248" y="244.5762">Blockstore</text><path d="M268.5,257.5293 C268.5,247.5293 286.5,247.5293 286.5,247.5293 C286.5,247.5293 304.5,247.5293 304.5,257.5293 L304.5,283.5293 C304.5,293.5293 286.5,293.5293 286.5,293.5293 C286.5,293.5293 268.5,293.5293 268.5,283.5293 L268.5,257.5293 " fill="#FEFECE" filter="url(#f7jmgluhpddnj)" style="stroke: #000000; stroke-width: 1.5;"/><path d="M268.5,257.5293 C268.5,267.5293 286.5,267.5293 286.5,267.5293 C286.5,267.5293 304.5,267.5293 304.5,257.5293 " fill="none" style="stroke: #000000; stroke-width: 1.5;"/><rect fill="#FEFECE" filter="url(#f7jmgluhpddnj)" height="30.4883" style="stroke: #A80036; stroke-width: 1.5;" width="62" x="335" y="30"/><text fill="#000000" font-family="sans-serif" font-size="14" lengthAdjust="spacingAndGlyphs" textLength="48" x="342" y="50.5352">P2PNet</text><rect fill="#FEFECE" filter="url(#f7jmgluhpddnj)" height="30.4883" style="stroke: #A80036; stroke-width: 1.5;" width="62" x="335" y="231.041"/><text fill="#000000" font-family="sans-serif" font-size="14" lengthAdjust="spacingAndGlyphs" textLength="48" x="342" y="251.5762">P2PNet</text><polygon fill="#A80036" points="210,92.7988,200,96.7988,210,100.7988,206,96.7988" style="stroke: #A80036; stroke-width: 1.0;"/><polygon fill="#A80036" points="356,92.7988,366,96.7988,356,100.7988,360,96.7988" style="stroke: #A80036; stroke-width: 1.0;"/><line style="stroke: #A80036; stroke-width: 1.0;" x1="204" x2="362" y1="96.7988" y2="96.7988"/><text fill="#000000" font-family="sans-serif" font-size="13" lengthAdjust="spacingAndGlyphs" textLength="101" x="216" y="92.0566">Synchronization</text><polygon fill="#A80036" points="210,122.1094,200,126.1094,210,130.1094,206,126.1094" style="stroke: #A80036; stroke-width: 1.0;"/><polygon fill="#A80036" points="274.5,122.1094,284.5,126.1094,274.5,130.1094,278.5,126.1094" style="stroke: #A80036; stroke-width: 1.0;"/><line style="stroke: #A80036; stroke-width: 1.0;" x1="204" x2="280.5" y1="126.1094" y2="126.1094"/><text fill="#000000" font-family="sans-serif" font-size="13" lengthAdjust="spacingAndGlyphs" textLength="47" x="216" y="121.3672">Storage</text><polygon fill="#A80036" points="187,151.4199,197,155.4199,187,159.4199,191,155.4199" style="stroke: #A80036; stroke-width: 1.0;"/><line style="stroke: #A80036; stroke-width: 1.0;" x1="51" x2="193" y1="155.4199" y2="155.4199"/><text fill="#000000" font-family="sans-serif" font-size="13" lengthAdjust="spacingAndGlyphs" textLength="114" x="58" y="150.6777">JSON-RPC request</text><polygon fill="#A80036" points="62,180.7305,52,184.7305,62,188.7305,58,184.7305" style="stroke: #A80036; stroke-width: 1.0;"/><line style="stroke: #A80036; stroke-width: 1.0;" x1="56" x2="198" y1="184.7305" y2="184.7305"/><text fill="#000000" font-family="sans-serif" font-size="13" lengthAdjust="spacingAndGlyphs" textLength="124" x="68" y="179.9883">JSON-RPC response</text><polygon fill="#A80036" points="62,210.041,52,214.041,62,218.041,58,214.041" style="stroke: #A80036; stroke-width: 1.0;"/><line style="stroke: #A80036; stroke-width: 1.0;" x1="56" x2="198" y1="214.041" y2="214.041"/><text fill="#000000" font-family="sans-serif" font-size="13" lengthAdjust="spacingAndGlyphs" textLength="115" x="68" y="209.2988">WebSock message</text><!--MD5=[7fdce133f7422f04dd700a39650234f5]
@startuml
participant ClientApp      as Client
participant jbitcoind      as Server
database    Blockstore     as Blockstore
participant P2PNet         as P2PNet

Server <-> P2PNet : Synchronization
Server <-> Blockstore : Storage
Client -> Server : JSON-RPC request
Client <- Server : JSON-RPC response
Client <- Server : WebSock message

@enduml

PlantUML version 1.2019.12(Sun Nov 03 02:24:54 PST 2019)
(APACHE source distribution)
Java Runtime: OpenJDK Runtime Environment
JVM: OpenJDK 64-Bit Server VM
Java Version: 17.0.7+7
Operating System: Mac OS X
Default Encoding: UTF-8
Language: en
Country: US
--></g></svg>